<svg width="64" height="46" viewBox="0 0 64 46" fill="none" xmlns="http://www.w3.org/2000/svg">
<path d="M5.93071 0.5C2.65646 0.5 0 3.01953 0 6.125C0 7.89453 0.87725 9.55859 2.37228 10.625L29.2582 29.75C30.6667 30.7461 32.5942 30.7461 34.0027 29.75L60.8886 10.625C62.3836 9.55859 63.2609 7.89453 63.2609 6.125C63.2609 3.01953 60.6044 0.5 57.3302 0.5H5.93071ZM0 13.625V38C0 42.1367 3.54607 45.5 7.90761 45.5H55.3533C59.7148 45.5 63.2609 42.1367 63.2609 38V13.625L36.375 32.75C33.5579 34.7539 29.703 34.7539 26.8859 32.75L0 13.625Z" fill="white"/>
</svg>
