<svg width="64" height="60" viewBox="0 0 64 60" fill="none" xmlns="http://www.w3.org/2000/svg">
<path id="Vector" d="M21.1592 48.3119C21.1592 48.56 20.8659 48.7586 20.496 48.7586C20.0751 48.7958 19.7818 48.5973 19.7818 48.3119C19.7818 48.0638 20.0751 47.8653 20.445 47.8653C20.8276 47.8281 21.1592 48.0266 21.1592 48.3119ZM17.1927 47.7536C17.1034 48.0017 17.3585 48.2871 17.7411 48.3615C18.0727 48.4856 18.4553 48.3615 18.5319 48.1134C18.6084 47.8653 18.3661 47.5799 17.9834 47.4683C17.6518 47.3814 17.282 47.5055 17.1927 47.7536ZM22.83 47.5427C22.4602 47.6295 22.2051 47.8653 22.2433 48.1506C22.2816 48.3988 22.6132 48.5601 22.9958 48.4732C23.3657 48.3864 23.6208 48.1506 23.5825 47.9025C23.5443 47.6668 23.1999 47.5055 22.83 47.5427ZM31.2223 0C13.5322 0 0 13.0643 0 30.2725C0 44.0316 8.90244 55.8056 21.6184 59.9495C23.2509 60.2348 23.8249 59.2547 23.8249 58.4482C23.8249 57.679 23.7866 53.4359 23.7866 50.8305C23.7866 50.8305 14.8587 52.6915 12.9838 47.1333C12.9838 47.1333 11.5298 43.5229 9.43811 42.5924C9.43811 42.5924 6.5174 40.6445 9.64218 40.6818C9.64218 40.6818 12.818 40.9299 14.5653 43.8827C17.3585 48.6717 22.0393 47.2946 23.8631 46.4757C24.1565 44.4906 24.9855 43.1135 25.9038 42.2946C18.7742 41.5254 11.5808 40.5205 11.5808 28.5852C11.5808 25.1733 12.5501 23.4612 14.5908 21.2776C14.2592 20.4711 13.1751 17.1461 14.9224 12.8534C17.5881 12.047 23.7228 16.2032 23.7228 16.2032C26.2737 15.5084 29.0158 15.1487 31.7325 15.1487C34.4491 15.1487 37.1913 15.5084 39.7421 16.2032C39.7421 16.2032 45.8769 12.0346 48.5425 12.8534C50.2898 17.1585 49.2057 20.4711 48.8741 21.2776C50.9148 23.4736 52.1647 25.1857 52.1647 28.5852C52.1647 40.5577 44.6525 41.513 37.5229 42.2946C38.6963 43.2748 39.6911 45.1358 39.6911 48.0514C39.6911 52.2324 39.6528 57.4061 39.6528 58.4234C39.6528 59.2299 40.2395 60.21 41.8593 59.9246C54.6135 55.8056 63.2609 44.0316 63.2609 30.2725C63.2609 13.0643 48.9124 0 31.2223 0ZM12.3971 42.7909C12.2313 42.915 12.2695 43.2003 12.4864 43.4361C12.6904 43.6346 12.9838 43.7214 13.1496 43.5601C13.3154 43.4361 13.2771 43.1507 13.0603 42.915C12.8562 42.7165 12.5629 42.6296 12.3971 42.7909ZM11.0196 41.786C10.9304 41.9472 11.0579 42.1458 11.313 42.2698C11.517 42.3939 11.7721 42.3567 11.8614 42.183C11.9507 42.0217 11.8232 41.8232 11.5681 41.6991C11.313 41.6247 11.1089 41.6619 11.0196 41.786ZM15.152 46.2028C14.9479 46.3641 15.0245 46.7363 15.3178 46.972C15.6111 47.2573 15.981 47.2946 16.1468 47.0961C16.3126 46.9348 16.2361 46.5626 15.981 46.3268C15.7004 46.0415 15.3178 46.0043 15.152 46.2028ZM13.698 44.379C13.494 44.503 13.494 44.8256 13.698 45.111C13.9021 45.3963 14.2464 45.5204 14.4123 45.3963C14.6163 45.235 14.6163 44.9125 14.4123 44.6271C14.2337 44.3418 13.9021 44.2177 13.698 44.379Z" fill="white"/>
</svg>
