<svg width="64" height="60" viewBox="0 0 64 60" fill="none" xmlns="http://www.w3.org/2000/svg">
<g id="linkedin 1" clip-path="url(#clip0_3_67)">
<path id="Vector" d="M58.7422 3.75H4.50451C2.01926 3.75 0 5.44922 0 7.53516V52.4648C0 54.5508 2.01926 56.25 4.50451 56.25H58.7422C61.2275 56.25 63.2609 54.5508 63.2609 52.4648V7.53516C63.2609 5.44922 61.2275 3.75 58.7422 3.75ZM19.1195 48.75H9.7433V23.6953H19.1336V48.75H19.1195ZM14.4314 20.2734C11.4237 20.2734 8.9949 18.2461 8.9949 15.7617C8.9949 13.2773 11.4237 11.25 14.4314 11.25C17.425 11.25 19.8679 13.2773 19.8679 15.7617C19.8679 18.2578 17.4391 20.2734 14.4314 20.2734ZM54.266 48.75H44.8898V36.5625C44.8898 33.6562 44.8192 29.918 40.0181 29.918C35.1324 29.918 34.384 33.082 34.384 36.3516V48.75H25.0078V23.6953H34.0027V27.1172H34.1298C35.3865 25.1484 38.4507 23.0742 43.0117 23.0742C52.5009 23.0742 54.266 28.2656 54.266 35.0156V48.75Z" fill="white"/>
</g>
<defs>
<clipPath id="clip0_3_67">
<rect width="63.2609" height="60" fill="white"/>
</clipPath>
</defs>
</svg>
